Coordinates
version=1
nRows=17
nColumns=40
inDegrees=yes

Units are S.I. units (second, meters, Newtons, ...)
If the header above contains a line with 'inDegrees', this indicates whether rotational values are in degrees (yes) or radians (no).

endheader
time	pelvis_tilt	pelvis_list	pelvis_rotation	pelvis_tx	pelvis_ty	pelvis_tz	hip_flexion_r	hip_adduction_r	hip_rotation_r	knee_angle_r	knee_angle_r_beta	ankle_angle_r	subtalar_angle_r	mtp_angle_r	hip_flexion_l	hip_adduction_l	hip_rotation_l	knee_angle_l	knee_angle_l_beta	ankle_angle_l	subtalar_angle_l	mtp_angle_l	lumbar_extension	lumbar_bending	lumbar_rotation	arm_flex_r	arm_add_r	arm_rot_r	elbow_flex_r	pro_sup_r	wrist_flex_r	wrist_dev_r	arm_flex_l	arm_add_l	arm_rot_l	elbow_flex_l	pro_sup_l	wrist_flex_l	wrist_dev_l
      1.37000000	     -2.88104954	      5.93026340	    -87.88945895	      0.11603160	      0.93337909	     -0.40095342	     16.73342457	      6.25557396	     -7.25502512	     15.11305703	      0.26377261	      2.49596232	      0.00000000	      0.00000000	     19.68626022	     -7.04100710	      2.58510967	     59.48699829	      1.03824398	     -3.20673516	      0.00000000	      0.00000000	      1.49837105	      3.29890370	     -5.28390795	     -0.00000000	     -0.00000000	     -0.00000000	      0.00000000	      0.00000000	      0.00000000	     -0.00000000	     -0.00000000	     -0.00000000	     -0.00000000	      0.00000000	      0.00000000	      0.00000000	     -0.00000000
      1.38000000	     -2.72791544	      6.00955642	    -87.96858875	      0.11512615	      0.93408728	     -0.39434589	     16.20759177	      6.17333250	     -7.36345122	     14.86356416	      0.25941813	      2.75034438	      0.00000000	      0.00000000	     20.69831829	     -6.86669632	      2.47001795	     59.19839012	      1.03320682	     -2.72395759	      0.00000000	      0.00000000	      1.53753461	      3.14312666	     -5.04333757	      0.00000000	      0.00000000	      0.00000000	      0.00000000	      0.00000000	      0.00000000	      0.00000000	      0.00000000	      0.00000000	      0.00000000	      0.00000000	      0.00000000	      0.00000000	      0.00000000
      1.39000000	     -2.66731598	      6.04905770	    -88.08320361	      0.11418189	      0.93477336	     -0.38778241	     15.52403233	      6.27701631	     -6.98959634	     14.36565767	      0.25072803	      2.82605809	      0.00000000	      0.00000000	     21.62948121	     -6.75486094	      2.40375989	     58.75613555	      1.02548802	     -1.85360361	      0.00000000	      0.00000000	      1.52523899	      3.11114061	     -4.84589351	      0.00000000	      0.00000000	      0.00000000	      0.00000000	      0.00000000	      0.00000000	      0.00000000	      0.00000000	      0.00000000	      0.00000000	      0.00000000	      0.00000000	      0.00000000	      0.00000000
      1.40000000	     -2.58772230	      6.15428723	    -88.15201322	      0.11331704	      0.93531263	     -0.38133606	     15.07812788	      6.26288933	     -7.10289726	     14.18554706	      0.24758450	      3.03254262	      0.00000000	      0.00000000	     22.57395291	     -6.62474976	      2.29800101	     58.05924062	      1.01332491	     -1.43414778	      0.00000000	      0.00000000	      1.59326276	      3.02491282	     -4.66713149	      0.00000000	      0.00000000	      0.00000000	      0.00000000	      0.00000000	      0.00000000	      0.00000000	      0.00000000	      0.00000000	      0.00000000	      0.00000000	      0.00000000	      0.00000000	      0.00000000
      1.41000000	     -2.51108132	      6.28290697	    -88.23421119	      0.11252149	      0.93575310	     -0.37493796	     14.62316384	      6.26584301	     -7.08519881	     13.93433853	      0.24320009	      3.24288388	      0.00000000	     -0.00000000	     23.49702909	     -6.47411509	      2.19119403	     57.18870448	      0.99813119	     -0.91989540	      0.00000000	      0.00000000	      1.68550619	      2.95653291	     -4.48913525	      0.00000000	      0.00000000	      0.00000000	      0.00000000	      0.00000000	     -0.00000000	      0.00000000	      0.00000000	     -0.00000000	     -0.00000000	      0.00000000	      0.00000000	     -0.00000000	     -0.00000000
      1.42000000	     -2.45448945	      6.41249249	    -88.31963368	      0.11173272	      0.93608614	     -0.36861843	     14.17573611	      6.29742940	     -7.02204661	     13.67791938	      0.23872473	      3.43111638	      0.00000000	      0.00000000	     24.37758759	     -6.32667623	      2.08000253	     56.17028402	      0.98035640	     -0.43111968	      0.00000000	      0.00000000	      1.77113162	      2.90639483	     -4.31775185	      0.00000000	      0.00000000	      0.00000000	      0.00000000	      0.00000000	      0.00000000	      0.00000000	      0.00000000	      0.00000000	      0.00000000	      0.00000000	      0.00000000	      0.00000000	      0.00000000
      1.43000000	     -2.26319447	      6.39718566	    -88.48968495	      0.11095392	      0.93667756	     -0.36221527	     13.31457352	      6.28908717	     -6.37108032	     12.92636154	      0.22560757	      3.51698745	      0.00000000	      0.00000000	     25.00707512	     -6.05896381	      1.83961633	     54.97635773	      0.95951845	      0.21269049	      0.00000000	      0.00000000	      1.66838524	      2.70335916	     -4.01759747	      0.00000000	      0.00000000	      0.00000000	      0.00000000	      0.00000000	      0.00000000	      0.00000000	      0.00000000	      0.00000000	      0.00000000	      0.00000000	      0.00000000	      0.00000000	      0.00000000
      1.44000000	     -2.20615875	      6.37247149	    -88.59327434	      0.11026364	      0.93717203	     -0.35588320	     12.62432838	      6.33523054	     -6.19106125	     12.51311623	      0.21839508	      3.59641004	      0.00000000	      0.00000000	     25.57583367	     -5.90589943	      1.67392036	     53.57012494	      0.93497506	      0.47292305	      0.00000000	      0.00000000	      1.55672609	      2.66625284	     -3.83095110	      0.00000000	      0.00000000	      0.00000000	      0.00000000	      0.00000000	      0.00000000	      0.00000000	      0.00000000	      0.00000000	      0.00000000	      0.00000000	      0.00000000	      0.00000000	      0.00000000
      1.45000000	     -2.14022765	      6.39277661	    -88.70446495	      0.10959415	      0.93749783	     -0.34959235	     12.01552186	      6.35998923	     -6.02373848	     12.16033885	      0.21223795	      3.72613585	      0.00000000	      0.00000000	     26.13878127	     -5.73690852	      1.50638072	     52.02259913	      0.90796564	      0.66692444	      0.00000000	      0.00000000	      1.49764024	      2.60733052	     -3.65261111	      0.00000000	      0.00000000	      0.00000000	      0.00000000	      0.00000000	      0.00000000	      0.00000000	      0.00000000	      0.00000000	      0.00000000	      0.00000000	      0.00000000	      0.00000000	      0.00000000
      1.46000000	     -2.08018498	      6.47251598	    -88.79586171	      0.10899340	      0.93766257	     -0.34334152	     11.49070802	      6.37913777	     -5.88980193	     11.84093397	      0.20666328	      3.91932377	      0.00000000	      0.00000000	     26.72967328	     -5.55362126	      1.35271681	     50.36028868	      0.87895285	      0.79334659	      0.00000000	      0.00000000	      1.51434471	      2.55380894	     -3.48343901	      0.00000000	      0.00000000	      0.00000000	      0.00000000	      0.00000000	      0.00000000	      0.00000000	      0.00000000	      0.00000000	      0.00000000	      0.00000000	      0.00000000	      0.00000000	      0.00000000
      1.47000000	     -2.02591229	      6.55227915	    -88.89174084	      0.10842677	      0.93775859	     -0.33710379	     10.97381665	      6.40171964	     -5.73377656	     11.53461512	      0.20131701	      4.11270608	      0.00000000	      0.00000000	     27.26327256	     -5.36364657	      1.20641066	     48.56382785	      0.84759869	      0.82686026	      0.00000000	      0.00000000	      1.52506924	      2.50474254	     -3.33090212	      0.00000000	      0.00000000	      0.00000000	      0.00000000	      0.00000000	      0.00000000	      0.00000000	      0.00000000	      0.00000000	      0.00000000	      0.00000000	      0.00000000	      0.00000000	      0.00000000
      1.48000000	     -1.99450130	      6.65948285	    -88.97597376	      0.10790887	      0.93772599	     -0.33087604	     10.50123504	      6.43888160	     -5.60448151	     11.25289131	      0.19640000	      4.33276976	      0.00000000	      0.00000000	     27.79212170	     -5.18591257	      1.07654746	     46.67472574	      0.81462764	      0.80320716	      0.00000000	      0.00000000	      1.56699309	      2.48123182	     -3.19692690	      0.00000000	      0.00000000	      0.00000000	      0.00000000	      0.00000000	      0.00000000	      0.00000000	      0.00000000	      0.00000000	      0.00000000	      0.00000000	      0.00000000	      0.00000000	      0.00000000
      1.49000000	     -1.96319829	      6.61763901	    -89.05885522	      0.10741922	      0.93785115	     -0.32453736	      9.83179463	      6.47646367	     -5.49874025	     10.91366375	      0.19047937	      4.48922974	      0.00000000	      0.00000000	     28.07663902	     -5.00551238	      0.94019812	     44.62930597	      0.77892833	      0.68743620	      0.00000000	      0.00000000	      1.43926086	      2.45447384	     -3.05303548	      0.00000000	      0.00000000	      0.00000000	      0.00000000	      0.00000000	      0.00000000	      0.00000000	      0.00000000	      0.00000000	      0.00000000	      0.00000000	      0.00000000	      0.00000000	      0.00000000
      1.50000000	     -1.95620502	      6.76365840	    -89.13766378	      0.10695458	      0.93759761	     -0.31831237	      9.42384967	      6.53086796	     -5.35855378	     10.67191866	      0.18626012	      4.72820521	      0.00000000	      0.00000000	     28.55953689	     -4.83770884	      0.83019200	     42.54532647	      0.74255603	      0.51218605	      0.00000000	      0.00000000	      1.52362384	      2.44825794	     -2.93731141	      0.00000000	      0.00000000	      0.00000000	      0.00000000	      0.00000000	      0.00000000	      0.00000000	      0.00000000	      0.00000000	      0.00000000	      0.00000000	      0.00000000	      0.00000000	      0.00000000
      1.51000000	     -1.95862350	      6.86166322	    -89.21012449	      0.10652799	      0.93733895	     -0.31202935	      8.95749891	      6.59264238	     -5.22899425	     10.42670298	      0.18198030	      4.95615721	     -0.00000000	      0.00000000	     28.94247039	     -4.67648192	      0.71834223	     40.37095929	      0.70460616	      0.29342342	      0.00000000	      0.00000000	      1.55493620	      2.45448520	     -2.83892037	      0.00000000	      0.00000000	      0.00000000	      0.00000000	      0.00000000	     -0.00000000	     -0.00000000	     -0.00000000	      0.00000000	     -0.00000000	      0.00000000	      0.00000000	     -0.00000000	     -0.00000000
      1.52000000	     -1.97861075	      6.96940297	    -89.27739360	      0.10612428	      0.93699859	     -0.30571136	      8.50018318	      6.67040736	     -5.09542372	     10.17814348	      0.17764212	      5.19814964	      0.00000000	      0.00000000	     29.29376227	     -4.52509325	      0.61383951	     38.11850317	      0.66529339	      0.04725413	      0.00000000	      0.00000000	      1.59670571	      2.47516619	     -2.73795729	      0.00000000	      0.00000000	      0.00000000	      0.00000000	      0.00000000	      0.00000000	      0.00000000	      0.00000000	      0.00000000	      0.00000000	      0.00000000	      0.00000000	      0.00000000	      0.00000000
      1.53000000	     -2.00158623	      7.04429212	    -89.33200134	      0.10576826	      0.93663123	     -0.29933176	      8.00404209	      6.74655732	     -4.97937322	      9.93298505	      0.17336329	      5.42805178	      0.00000000	      0.00000000	     29.56843422	     -4.37316811	      0.51292577	     35.79797796	      0.62479258	     -0.24678719	      0.00000000	      0.00000000	      1.60124734	      2.49692472	     -2.65353739	      0.00000000	      0.00000000	      0.00000000	      0.00000000	      0.00000000	      0.00000000	      0.00000000	      0.00000000	      0.00000000	      0.00000000	      0.00000000	      0.00000000	      0.00000000	      0.00000000
